<?xml version="1.0" encoding="iso-8859-1"?>
<!-- Generator: Adobe Illustrator 19.0.0, SVG Export Plug-In . SVG Version: 6.00 Build 0)  -->
<svg version="1.1" id="Layer_1" xmlns="http://www.w3.org/2000/svg" xmlns:xlink="http://www.w3.org/1999/xlink" x="0px" y="0px"
	 viewBox="0 0 511.999 511.999" style="enable-background:new 0 0 511.999 511.999;" xml:space="preserve">
<path style="fill:#06CC93;" d="M504.281,256.463c0,136.83-110.922,247.753-247.753,247.753c-32.754,0-64.021-6.351-92.639-17.909
	c-6.088-2.447-12.054-5.137-17.889-8.049c-7.817-3.903-15.411-8.211-22.733-12.903C76.589,435.523,40.579,390.462,22.225,337.19
	c-8.717-25.301-13.449-52.463-13.449-80.727C8.776,119.633,119.698,8.71,256.528,8.71S504.281,119.633,504.281,256.463z"/>
<path style="fill:#FFFFFF;" d="M440.776,146.257c-2.69-4.503-5.569-8.953-8.557-13.228l12.433-8.691
	c3.193,4.571,6.272,9.328,9.146,14.14L440.776,146.257z M423.425,121.31c-15.632-19.423-34.318-35.788-55.541-48.639l7.857-12.974
	c22.739,13.769,42.758,31.299,59.501,52.103L423.425,121.31z"/>
<path style="fill:#00A371;" d="M202.862,471.523c-7.726,9.809-19.315,15.442-31.803,15.442c-2.407,0-4.813-0.222-7.17-0.657
	c-6.088-2.447-12.054-5.137-17.889-8.049c-7.817-3.903-15.411-8.211-22.733-12.903C76.589,435.523,40.579,390.462,22.225,337.19
	l6.189-4.085l20.103-53.879l45.303,35.626l4.288,23.896l14.643,11.356l48.701-78.401l44.646,35.11l-29.296,92.963l19.274,14.946
	C213.601,428.505,216.645,453.988,202.862,471.523z"/>
<path style="fill:#E0E0E0;" d="M453.719,256.463c0,108.91-88.281,197.191-197.191,197.191c-15.512,0-30.6-1.79-45.081-5.178
	c-76.52-17.889-135.9-80.343-149.279-158.511c-1.861-10.891-2.831-22.085-2.831-33.502c0-108.91,88.281-197.191,197.191-197.191
	S453.719,147.553,453.719,256.463z"/>
<path style="fill:#898890;" d="M211.447,448.477c-76.52-17.889-135.9-80.343-149.279-158.511l31.652,24.887l4.288,23.896
	l14.643,11.356l48.701-78.401l44.646,35.11l-29.296,92.963l19.274,14.946C206.745,423.115,212.054,435.846,211.447,448.477z"/>
<path style="fill:#FFFFFF;" d="M433.495,256.463c0,97.736-79.23,176.966-176.966,176.966c-17.555,0-34.513-2.558-50.521-7.311
	c-45.192-13.439-82.83-44.454-104.987-85.106c-1.335-2.478-2.629-4.985-3.853-7.524c-3.63-7.493-6.755-15.28-9.303-23.319
	c-5.39-16.938-8.302-34.989-8.302-53.707c0-97.736,79.23-176.966,176.966-176.966S433.495,158.727,433.495,256.463z"/>
<path style="fill:#E0E0E0;" d="M257.034,296.407c-22.304,0-40.449-18.146-40.449-40.449s18.146-40.449,40.449-40.449
	s40.449,18.146,40.449,40.449S279.337,296.407,257.034,296.407z"/>
<circle style="fill:#FFC853;" cx="257.036" cy="255.954" r="20.225"/>
<path style="fill:#898890;" d="M93.82,314.852l3.347,18.637c-3.63-7.493-6.755-15.28-9.303-23.319L93.82,314.852z"/>
<path style="fill:#E0E0E0;" d="M206.007,426.118c-45.192-13.439-82.83-44.454-104.987-85.106l11.73,9.091l48.701-78.401
	l44.646,35.11l-29.296,92.963l19.274,14.946C200.192,417.958,203.519,421.841,206.007,426.118z"/>
<polygon style="fill:#FFFFFF;" points="45.072,488.933 128.36,438.653 153.367,406.858 182.606,314.067 166.709,301.564 
	118.394,379.352 93.388,411.145 29.175,476.43 "/>
<polygon style="fill:#E0E0E0;" points="110.08,449.688 128.36,438.653 153.367,406.858 159.763,386.559 128.82,362.564 
	118.394,379.352 93.388,411.145 79.444,425.322 "/>
<path style="fill:#FFFFFF;" d="M54.747,379.84l103.818,82.568c8.78,6.906,21.495,5.386,28.4-3.394
	c6.906-8.78,5.386-21.495-3.394-28.4L79.574,349.968l-4.305-23.97l-17.486-13.754l-12.721,34.11l-32.111,21.198l17.487,13.753
	L54.747,379.84z"/>
<path d="M188.218,424.621l-26.115-20.251l29.312-93.023l-26.678-20.982l-48.647,78.322L86.524,345.76l-4.3-23.941L54.307,299.86
	L38.82,341.387L0,367.013l28.015,22.036l24.287-1.463l30.086,23.929l-64.562,65.639l26.678,20.981l83.452-50.379l25.92,20.615
	c5.086,3.999,11.144,5.939,17.162,5.938c8.242,0,16.409-3.639,21.889-10.605C202.405,451.651,200.312,434.133,188.218,424.621z
	 M168.681,312.764l5.117,4.024l-24.475,77.671l-21.181-16.426L168.681,312.764z M45.64,479.731l-5.117-4.024l53.802-54.7
	l20.967,16.675L45.64,479.731z M181.004,454.326c-4.311,5.478-12.275,6.429-17.718,2.147L57.195,372.094l-24.333,1.465l-6.957-5.471
	l25.4-16.767l9.956-26.694l7.055,5.548l4.31,24l106.259,82.399C184.362,440.884,185.312,448.848,181.004,454.326z"/>
<path d="M450.033,89.276C405.5,37.624,343.516,6.404,275.502,1.371C207.486-3.667,141.585,18.09,89.931,62.623
	C38.279,107.157,7.06,169.141,2.028,237.155c-1.923,25.984,0.086,51.916,5.97,77.077l14.769-3.454
	c-5.534-23.661-7.422-48.055-5.613-72.503c4.735-63.974,34.099-122.274,82.683-164.162c48.583-41.888,110.575-62.357,174.545-57.615
	c63.974,4.735,122.275,34.099,164.162,82.683c41.888,48.585,62.35,110.573,57.615,174.545C491.424,337.7,462.06,396,413.476,437.888
	c-48.585,41.888-110.581,62.35-174.545,57.614c-5.352-0.396-10.756-0.978-16.059-1.73l-2.129,15.019
	c5.638,0.8,11.38,1.418,17.069,1.838c6.439,0.477,12.852,0.713,19.242,0.713c61.116,0,119.565-21.648,166.328-61.966
	c51.652-44.534,82.871-106.517,87.905-174.53C516.321,206.832,494.567,140.928,450.033,89.276z"/>
<path d="M461.304,256.463c0-112.914-91.862-204.775-204.775-204.775S51.753,143.55,51.753,256.463h15.169
	c0-104.55,85.057-189.607,189.607-189.607s189.607,85.057,189.607,189.607S361.078,446.07,256.528,446.07v15.169
	C369.442,461.239,461.304,369.377,461.304,256.463z"/>
<rect x="248.946" y="91.628" width="15.169" height="15.169"/>
<rect x="248.946" y="409.156" width="15.169" height="15.169"/>
<rect x="90.182" y="250.392" width="15.169" height="15.169"/>
<rect x="407.71" y="250.392" width="15.169" height="15.169"/>
<path d="M229.225,255.958c0,15.333,12.476,27.809,27.809,27.809c12.704,0,23.438-8.567,26.749-20.225h63.756v-15.169h-63.756
	c-2.625-9.245-9.92-16.54-19.165-19.165V129.047H249.45v100.161C237.792,232.519,229.225,243.253,229.225,255.958z M257.034,243.317
	c6.97,0,12.64,5.67,12.64,12.64c0,6.97-5.67,12.64-12.64,12.64s-12.64-5.67-12.64-12.64
	C244.394,248.987,250.064,243.317,257.034,243.317z"/>
<g>
</g>
<g>
</g>
<g>
</g>
<g>
</g>
<g>
</g>
<g>
</g>
<g>
</g>
<g>
</g>
<g>
</g>
<g>
</g>
<g>
</g>
<g>
</g>
<g>
</g>
<g>
</g>
<g>
</g>
</svg>
