<?xml version="1.0" encoding="iso-8859-1"?>
<!-- Generator: Adobe Illustrator 19.0.0, SVG Export Plug-In . SVG Version: 6.00 Build 0)  -->
<svg version="1.1" id="Capa_1" xmlns="http://www.w3.org/2000/svg" xmlns:xlink="http://www.w3.org/1999/xlink" x="0px" y="0px"
	 viewBox="0 0 60 60" style="enable-background:new 0 0 60 60;" xml:space="preserve">
<path style="fill:#F4E6CE;" d="M52.125,27.875L52.125,27.875c-1.167-1.167-3.076-1.167-4.243,0L31.757,44H4.037c-1.65,0-3,1.35-3,3
	c0,1.65,1.35,3,3,3h28c1.172,0,2.255-0.333,3.118-0.912l16.971-16.971C53.292,30.951,53.292,29.042,52.125,27.875z"/>
<polyline style="fill:none;stroke:#7F6E5D;stroke-width:2;stroke-linecap:round;stroke-miterlimit:10;" points="1,53 36,53 59,30 
	"/>
<line style="fill:none;stroke:#7F6E5D;stroke-width:2;stroke-linecap:round;stroke-miterlimit:10;" x1="59" y1="57" x2="46" y2="44"/>
<path style="fill:#CB8252;stroke:#7F6E5D;stroke-width:2;stroke-linecap:round;stroke-miterlimit:10;" d="M57.513,56H1v-3h54
	l2.655,2.655C57.783,55.783,57.692,56,57.513,56z"/>
<circle style="fill:#F29C1F;stroke:#F0C419;stroke-width:2;stroke-linecap:round;stroke-linejoin:round;stroke-miterlimit:10;" cx="17" cy="13" r="7"/>
<line style="fill:none;stroke:#F0C419;stroke-width:2;stroke-linecap:round;stroke-linejoin:round;stroke-miterlimit:10;" x1="17" y1="6" x2="17" y2="3"/>
<line style="fill:none;stroke:#F0C419;stroke-width:2;stroke-linecap:round;stroke-linejoin:round;stroke-miterlimit:10;" x1="17" y1="23" x2="17" y2="20"/>
<line style="fill:none;stroke:#F0C419;stroke-width:2;stroke-linecap:round;stroke-linejoin:round;stroke-miterlimit:10;" x1="24" y1="13" x2="27" y2="13"/>
<line style="fill:none;stroke:#F0C419;stroke-width:2;stroke-linecap:round;stroke-linejoin:round;stroke-miterlimit:10;" x1="7" y1="13" x2="10" y2="13"/>
<line style="fill:none;stroke:#F0C419;stroke-width:2;stroke-linecap:round;stroke-linejoin:round;stroke-miterlimit:10;" x1="12.05" y1="8.05" x2="9.929" y2="5.929"/>
<line style="fill:none;stroke:#F0C419;stroke-width:2;stroke-linecap:round;stroke-linejoin:round;stroke-miterlimit:10;" x1="24.071" y1="20.071" x2="21.95" y2="17.95"/>
<line style="fill:none;stroke:#F0C419;stroke-width:2;stroke-linecap:round;stroke-linejoin:round;stroke-miterlimit:10;" x1="21.95" y1="8.05" x2="24.071" y2="5.929"/>
<line style="fill:none;stroke:#F0C419;stroke-width:2;stroke-linecap:round;stroke-linejoin:round;stroke-miterlimit:10;" x1="9.929" y1="20.071" x2="12.05" y2="17.95"/>
<path style="fill:#81CCB8;stroke:#81CCB8;stroke-width:2;stroke-linejoin:round;stroke-miterlimit:10;" d="M38.966,7.914
	c-1.49-0.86-3.403-0.414-4.231,1.021c3.452-5.979,10.847-7.594,16.825-4.142s8.277,10.664,4.825,16.642
	c0.828-1.435,0.259-3.315-1.231-4.175c-1.49-0.86-3.37-0.395-4.198,1.04c0.828-1.435,0.292-3.295-1.198-4.156
	c-1.49-0.86-3.37-0.394-4.198,1.04c0.828-1.435,0.292-3.295-1.198-4.156s-3.37-0.394-4.198,1.04
	C40.992,10.634,40.456,8.774,38.966,7.914z"/>
<path style="fill:#546A79;" d="M31.757,44l0.741-0.741l14.128-27.806c0.25-0.492,0.054-1.095-0.438-1.345
	c-0.493-0.248-1.095-0.053-1.345,0.438l-14.734,29c-0.074,0.146-0.098,0.3-0.097,0.453H31.757z"/>
<g>
</g>
<g>
</g>
<g>
</g>
<g>
</g>
<g>
</g>
<g>
</g>
<g>
</g>
<g>
</g>
<g>
</g>
<g>
</g>
<g>
</g>
<g>
</g>
<g>
</g>
<g>
</g>
<g>
</g>
</svg>
